<?xml version="1.0" standalone="no"?>
<!DOCTYPE svg PUBLIC "-//W3C//DTD SVG 20010904//EN"
 "http://www.w3.org/TR/2001/REC-SVG-20010904/DTD/svg10.dtd">
<svg version="1.0" xmlns="http://www.w3.org/2000/svg"
 width="1139.000000pt" height="1139.000000pt" viewBox="0 0 1139.000000 1139.000000"
 preserveAspectRatio="xMidYMid meet">
<metadata>
Created by potrace 1.11, written by Peter Selinger 2001-2013
</metadata>
<g transform="translate(0.000000,1139.000000) scale(0.100000,-0.100000)"
fill="#000000" stroke="none">
<path d="M5676 11370 c-286 -119 -390 -458 -219 -718 125 -190 386 -259 598
-158 360 170 364 676 8 857 -65 33 -70 34 -202 36 -117 2 -143 0 -185 -17z"/>
<path d="M3680 10865 c-727 -100 -1325 -650 -1484 -1365 -154 -695 121 -1412
699 -1825 208 -148 417 -239 680 -296 141 -31 445 -38 604 -15 285 42 559 157
801 334 105 78 303 280 383 392 79 112 194 338 236 465 121 373 119 768 -6
1129 -221 638 -777 1094 -1440 1181 -136 18 -342 18 -473 0z"/>
<path d="M6989 10745 c-305 -61 -558 -302 -641 -610 -28 -106 -30 -298 -4
-400 25 -100 105 -259 170 -337 110 -133 273 -235 441 -279 111 -28 289 -28
400 0 437 114 707 541 616 976 -24 115 -84 248 -155 342 -185 245 -519 369
-827 308z"/>
<path d="M6320 8634 c-198 -52 -355 -196 -421 -387 -55 -158 -46 -313 27 -465
73 -153 242 -287 405 -322 82 -18 250 -9 323 18 148 54 270 161 336 295 90
183 91 367 4 547 -72 146 -237 277 -395 315 -80 18 -207 18 -279 -1z"/>
<path d="M1037 8586 c-146 -61 -221 -170 -221 -321 0 -67 4 -90 28 -143 100
-217 383 -273 561 -111 79 73 109 140 110 249 0 72 -4 94 -26 141 -36 77 -87
130 -161 169 -55 29 -74 34 -148 37 -72 3 -94 0 -143 -21z"/>
<path d="M7727 7339 c-1274 -113 -2358 -1008 -2713 -2242 -84 -291 -117 -536
-117 -862 0 -246 13 -382 58 -615 198 -1012 932 -1891 1900 -2274 234 -92 445
-149 715 -191 140 -22 564 -31 725 -16 606 59 1168 285 1648 663 157 124 426
400 543 558 326 438 510 875 601 1425 15 92 18 168 18 460 0 379 -7 444 -70
712 -207 877 -802 1637 -1602 2046 -377 193 -738 298 -1158 337 -124 11 -416
11 -548 -1z"/>
<path d="M1450 7166 c-315 -57 -564 -188 -779 -412 -190 -196 -304 -414 -363
-687 -31 -146 -30 -389 1 -536 93 -436 355 -778 750 -976 306 -153 704 -180
1038 -70 250 83 466 230 631 430 526 636 389 1574 -298 2036 -137 92 -312 165
-490 204 -102 23 -389 29 -490 11z"/>
<path d="M3957 6810 c-292 -52 -551 -243 -682 -500 -234 -463 -48 -1031 415
-1265 371 -187 835 -101 1115 207 252 278 315 691 156 1025 -128 267 -335 438
-629 519 -66 19 -302 27 -375 14z"/>
<path d="M2185 3736 c-197 -46 -372 -159 -481 -313 -117 -162 -171 -371 -145
-556 46 -327 277 -585 595 -667 108 -27 273 -27 382 0 192 49 357 163 466 324
217 317 170 744 -111 1009 -88 83 -180 137 -301 178 -83 28 -111 32 -220 35
-82 3 -145 -1 -185 -10z"/>
<path d="M4206 2324 c-601 -109 -1032 -675 -968 -1270 31 -285 146 -529 342
-724 136 -136 290 -229 490 -296 85 -29 86 -29 340 -29 254 0 255 0 340 29
203 68 356 161 495 301 364 367 448 920 208 1376 -170 324 -484 551 -847 614
-109 18 -294 18 -400 -1z"/>
</g>
</svg>
